<svg xmlns="http://www.w3.org/2000/svg" viewBox="0 0 512 512" fill="none">
  <rect width="512" height="512" rx="112" fill="#0D1B2A"/>
  <path d="M90 344C90 222.1 188.8 122 311 122H434V344C434 424.3 369.4 489 289 489H245C168.4 489 90 411.6 90 344Z" fill="#F4EDD8"/>
  <path d="M126 340C126 242.4 205 162 302.8 162H389V340C389 399.4 341.7 447 282.4 447H246C187.4 447 126 397.6 126 340Z" fill="#F59E0B"/>
  <path d="M166 228C194 264 225 289 261 312" stroke="#0D1B2A" stroke-width="22" stroke-linecap="round"/>
  <path d="M149 300C180 278 208 248 230 214" stroke="#0D1B2A" stroke-width="22" stroke-linecap="round"/>
  <path d="M126 340H389" stroke="#0D1B2A" stroke-width="22" stroke-linecap="round"/>
  <path d="M302 162V310" stroke="#0D1B2A" stroke-width="22" stroke-linecap="round"/>
  <circle cx="350" cy="184" r="26" fill="#F97316"/>
  <path d="M340 184h20M350 174v20" stroke="#FFF7ED" stroke-width="7" stroke-linecap="round"/>
</svg>
